<svg xmlns="http://www.w3.org/2000/svg" xmlns:xlink="http://www.w3.org/1999/xlink" width="42" height="42" viewBox="0 0 42 42">
  <defs>
    <clipPath id="clip-path">
      <rect id="Rectangle_35" data-name="Rectangle 35" width="22" height="22" transform="translate(1557 7482)"/>
    </clipPath>
  </defs>
  <g id="Group_3249" data-name="Group 3249" transform="translate(-1547 -7472)">
    <circle id="Ellipse_8" data-name="Ellipse 8" cx="21" cy="21" r="21" transform="translate(1547 7472)" fill="#fff"/>
    <g id="Mask_Group_4" data-name="Mask Group 4" clip-path="url(#clip-path)">
      <g id="pinterest-logo" transform="translate(1557 7482)">
        <path id="Path_753" data-name="Path 753" d="M20.526,5.478a10.954,10.954,0,0,0-4-4A10.759,10.759,0,0,0,11,0,10.759,10.759,0,0,0,5.479,1.475a10.95,10.95,0,0,0-4,4A10.758,10.758,0,0,0,0,11a10.663,10.663,0,0,0,1.819,6.059,10.963,10.963,0,0,0,4.77,4.025,9.489,9.489,0,0,1,.186-2.535l1.418-5.987a3.82,3.82,0,0,1-.358-1.747A3.281,3.281,0,0,1,8.451,8.78a1.831,1.831,0,0,1,1.5-.816,1.344,1.344,0,0,1,1.1.473,1.815,1.815,0,0,1,.387,1.189,4.448,4.448,0,0,1-.165,1.081q-.165.637-.43,1.475t-.38,1.339a1.626,1.626,0,0,0,.329,1.5,1.752,1.752,0,0,0,1.4.623,2.881,2.881,0,0,0,2.514-1.7A8.173,8.173,0,0,0,15.7,9.8a4.061,4.061,0,0,0-1.21-3.051,4.641,4.641,0,0,0-3.373-1.175A5.215,5.215,0,0,0,5.7,10.843a3.258,3.258,0,0,0,.73,2.163.653.653,0,0,1,.158.616q-.029.086-.115.43c-.057.229-.1.377-.114.444q-.114.458-.544.286a3.231,3.231,0,0,1-1.676-1.59,5.728,5.728,0,0,1-.573-2.621,6.249,6.249,0,0,1,.308-1.919A6.546,6.546,0,0,1,4.834,6.8,7.537,7.537,0,0,1,6.4,5.214a7.325,7.325,0,0,1,2.213-1.1A9.2,9.2,0,0,1,11.415,3.7a7.37,7.37,0,0,1,3.652.9,6.447,6.447,0,0,1,2.471,2.335A5.894,5.894,0,0,1,18.391,10a9.637,9.637,0,0,1-.745,3.867,6.349,6.349,0,0,1-2.106,2.7,5.156,5.156,0,0,1-3.094.981,3.4,3.4,0,0,1-1.633-.408,2.388,2.388,0,0,1-1.045-.967q-.645,2.535-.774,3.022a8.81,8.81,0,0,1-1.117,2.349,11,11,0,0,0,8.644-1.017,10.948,10.948,0,0,0,4-4A10.761,10.761,0,0,0,22,11,10.757,10.757,0,0,0,20.526,5.478Z"/>
      </g>
    </g>
  </g>
</svg>
