<svg xmlns="http://www.w3.org/2000/svg" xmlns:xlink="http://www.w3.org/1999/xlink" width="42" height="42" viewBox="0 0 42 42">
  <defs>
    <clipPath id="clip-path">
      <rect id="Rectangle_32" data-name="Rectangle 32" width="22" height="22" transform="translate(1368 7482)"/>
    </clipPath>
  </defs>
  <g id="Group_3250" data-name="Group 3250" transform="translate(-1358 -7472)">
    <circle id="Ellipse_5" data-name="Ellipse 5" cx="21" cy="21" r="21" transform="translate(1358 7472)" fill="#fff"/>
    <g id="Mask_Group_1" data-name="Mask Group 1" clip-path="url(#clip-path)">
      <g id="_001-facebook-logo" data-name="001-facebook-logo" transform="translate(1368 7482)">
        <path id="Facebook__x28_alt_x29_" d="M22,3.667A3.8,3.8,0,0,0,18.333,0H3.667A3.8,3.8,0,0,0,0,3.667V18.333A3.8,3.8,0,0,0,3.667,22H11V13.689H8.311V10.022H11V8.594c0-2.464,1.85-4.683,4.125-4.683h2.964V7.578H15.125c-.324,0-.7.394-.7.984v1.461h3.667v3.667H14.422V22h3.911A3.8,3.8,0,0,0,22,18.333Z"/>
      </g>
    </g>
  </g>
</svg>
